<?xml version="1.0" encoding="utf-8"?>
<!-- Generator: Adobe Illustrator 27.0.0, SVG Export Plug-In . SVG Version: 6.00 Build 0)  -->
<svg version="1.1" id="Layer_2_00000181045737540757326940000009432671103994128776_"
	 xmlns="http://www.w3.org/2000/svg" xmlns:xlink="http://www.w3.org/1999/xlink" x="0px" y="0px" viewBox="0 0 289.8 264.8"
	 style="enable-background:new 0 0 289.8 264.8;" xml:space="preserve">
<style type="text/css">
	.st0{fill:#FFFFFF;}
</style>
<g>
	<path class="st0" d="M26,49.9c-13.2,0-24-10.7-24-24S12.7,2,26,2h237.9c13.2,0,24,10.7,24,24s-10.7,24-24,24H26z"/>
	<path d="M263.9,4c12.1,0,22,9.9,22,22c0,12.1-9.9,22-22,22H26c-12.1,0-22-9.9-22-22S13.9,4,26,4H263.9 M263.9,0H26
		C11.6,0,0,11.6,0,26v0c0,14.3,11.6,26,26,26h237.9c14.3,0,26-11.6,26-26v0C289.8,11.6,278.2,0,263.9,0L263.9,0z"/>
</g>
<g>
	<path class="st0" d="M62.3,156.4c-13.2,0-24-10.7-24-24c0-13.2,10.7-24,24-24h149.7c13.2,0,24,10.7,24,24c0,13.2-10.7,24-24,24
		H62.3z"/>
	<path d="M211.9,110.4c12.1,0,22,9.9,22,22c0,12.1-9.9,22-22,22H62.3c-12.1,0-22-9.9-22-22c0-12.1,9.9-22,22-22H211.9 M211.9,106.4
		H62.3c-14.3,0-26,11.6-26,26v0c0,14.3,11.6,26,26,26h149.7c14.3,0,26-11.6,26-26v0C237.9,118.1,226.3,106.4,211.9,106.4
		L211.9,106.4z"/>
</g>
<g>
	<path class="st0" d="M26,262.8c-13.2,0-24-10.7-24-24s10.7-24,24-24H160c13.2,0,24,10.7,24,24s-10.7,24-24,24H26z"/>
	<path d="M160,216.9c12.1,0,22,9.9,22,22c0,12.1-9.9,22-22,22H26c-12.1,0-22-9.9-22-22c0-12.1,9.9-22,22-22H160 M160,212.9H26
		c-14.3,0-26,11.6-26,26v0c0,14.3,11.6,26,26,26H160c14.3,0,26-11.6,26-26v0C186,224.5,174.4,212.9,160,212.9L160,212.9z"/>
</g>
<g>
	<path class="st0" d="M263.9,262.8c-13.2,0-24-10.7-24-24s10.7-24,24-24c13.2,0,24,10.7,24,24S277.1,262.8,263.9,262.8z"/>
	<path d="M263.9,216.9c12.1,0,22,9.9,22,22c0,12.1-9.9,22-22,22c-12.1,0-22-9.9-22-22C241.9,226.7,251.8,216.9,263.9,216.9
		 M263.9,212.9L263.9,212.9c-14.3,0-26,11.6-26,26v0c0,14.3,11.6,26,26,26h0c14.3,0,26-11.6,26-26v0
		C289.8,224.5,278.2,212.9,263.9,212.9L263.9,212.9z"/>
</g>
</svg>
